<svg xmlns="http://www.w3.org/2000/svg" width="180.812" height="174.482" viewBox="0 0 180.812 174.482"><defs><style>.a{fill:#fd0;}</style></defs><path class="a" d="M177.381,54.425,94.744,1.262a8.089,8.089,0,0,0-8.677,0L3.43,54.425A7.553,7.553,0,0,0,0,60.656v53.162a7.553,7.553,0,0,0,3.431,6.232l82.637,53.17a8.089,8.089,0,0,0,8.677,0l82.637-53.17a7.553,7.553,0,0,0,3.431-6.232V60.656a7.553,7.553,0,0,0-3.431-6.231ZM98.175,21.514l60.842,39.142L131.876,78.182l-33.7-21.713Zm-15.539,0V56.469l-33.7,21.713L21.794,60.656Zm-67.1,53.163,19.474,12.56L15.539,99.8Zm67.1,78.284L21.794,113.819,48.936,96.293l33.7,21.713Zm7.769-48L62.961,87.237,90.406,69.517l27.445,17.721Zm7.769,48V118.006l33.7-21.713,27.142,17.526Zm67.1-53.163L145.8,87.237l19.474-12.56Z" transform="translate(0 0)"/></svg>