<svg xmlns="http://www.w3.org/2000/svg" width="177.058" height="174.057" viewBox="0 0 177.058 174.057"><defs><style>.a{fill:#fd0;}</style></defs><path class="a" d="M37.854,82.964,84.393,37.22l-15.257-15L47.806,43.19a2.772,2.772,0,0,1-3.877,0l-3.877-3.811a2.66,2.66,0,0,1,0-3.811L61.383,14.6,49.75,3.161a11.1,11.1,0,0,0-15.513,0L3.214,33.658a10.656,10.656,0,0,0,0,15.25l34.64,34.056ZM172.191,43.258a16.136,16.136,0,0,0,0-23.093L156.543,4.782a16.821,16.821,0,0,0-23.5,0L117.131,20.423l39.146,38.482ZM109.305,28.12,6.6,129.071.112,165.595a7.28,7.28,0,0,0,8.5,8.349l37.157-6.4L148.451,66.6Zm64.539,97.031-11.633-11.436-21.33,20.968a2.772,2.772,0,0,1-3.877,0l-3.877-3.811a2.666,2.666,0,0,1,0-3.811l21.33-20.968L139.194,91.088,92.654,136.832l34.654,34.063a11.1,11.1,0,0,0,15.513,0L173.844,140.4a10.653,10.653,0,0,0,0-15.25Z" transform="translate(0 0.001)"/></svg>